HIERARCHY
ROOT Hips
{
	OFFSET 0.00000 0.00000 0.00000
	CHANNELS 6 Xposition Yposition Zposition Zrotation Yrotation Xrotation 
	JOINT LHipJoint
	{
		OFFSET 0 0 0
		CHANNELS 3 Zrotation Yrotation Xrotation
		JOINT LeftUpLeg
		{
			OFFSET 1.64577 -1.42384 0.94276
			CHANNELS 3 Zrotation Yrotation Xrotation
			JOINT LeftLeg
			{
				OFFSET 2.11538 -5.81197 0.00000
				CHANNELS 3 Zrotation Yrotation Xrotation
				JOINT LeftFoot
				{
					OFFSET 2.36541 -6.49893 0.00000
					CHANNELS 3 Zrotation Yrotation Xrotation
					JOINT LeftToeBase
					{
						OFFSET 0.17759 -0.48793 1.73865
						CHANNELS 3 Zrotation Yrotation Xrotation
						End Site
						{
							OFFSET 0.00000 -0.00000 0.91205
						}
					}
				}
			}
		}
	}
	JOINT RHipJoint
	{
		OFFSET 0 0 0
		CHANNELS 3 Zrotation Yrotation Xrotation
		JOINT RightUpLeg
		{
			OFFSET -1.43750 -1.42384 0.94276
			CHANNELS 3 Zrotation Yrotation Xrotation
			JOINT RightLeg
			{
				OFFSET -2.10480 -5.78291 0.00000
				CHANNELS 3 Zrotation Yrotation Xrotation
				JOINT RightFoot
				{
					OFFSET -2.34880 -6.45329 0.00000
					CHANNELS 3 Zrotation Yrotation Xrotation
					JOINT RightToeBase
					{
						OFFSET -0.22842 -0.62757 1.80469
						CHANNELS 3 Zrotation Yrotation Xrotation
						End Site
						{
							OFFSET -0.00000 -0.00000 0.95886
						}
					}
				}
			}
		}
	}
	JOINT LowerBack
	{
		OFFSET 0 0 0
		CHANNELS 3 Zrotation Yrotation Xrotation
		JOINT Spine
		{
			OFFSET 0.06217 1.93758 -0.49272
			CHANNELS 3 Zrotation Yrotation Xrotation
			JOINT Spine1
			{
				OFFSET -0.03114 2.03621 -0.05830
				CHANNELS 3 Zrotation Yrotation Xrotation
				JOINT Neck
				{
					OFFSET 0 0 0
					CHANNELS 3 Zrotation Yrotation Xrotation
					JOINT Neck1
					{
						OFFSET 0.04421 1.41010 0.26562
						CHANNELS 3 Zrotation Yrotation Xrotation
						JOINT Head
						{
							OFFSET -0.13407 1.43847 0.06181
							CHANNELS 3 Zrotation Yrotation Xrotation
							End Site
							{
								OFFSET -0.04980 1.45844 -0.00689
							}
						}
					}
				}
				JOINT LeftShoulder
				{
					OFFSET 0 0 0
					CHANNELS 3 Zrotation Yrotation Xrotation
					JOINT LeftArm
					{
						OFFSET 2.18382 1.47753 -0.35694
						CHANNELS 3 Zrotation Yrotation Xrotation
						JOINT LeftForeArm
						{
							OFFSET 5.05460 -0.00000 0.00000
							CHANNELS 3 Zrotation Yrotation Xrotation
							JOINT LeftHand
							{
								OFFSET 3.39013 -0.00000 0.00000
								CHANNELS 3 Zrotation Yrotation Xrotation
								JOINT LeftFingerBase
								{
									OFFSET 0 0 0
									CHANNELS 3 Zrotation Yrotation Xrotation
									JOINT LeftHandIndex1
									{
										OFFSET 0.57242 -0.00000 -0.00000
										CHANNELS 3 Zrotation Yrotation Xrotation
										End Site
										{
											OFFSET 0.46150 -0.00000 -0.00000
										}
									}
								}
								JOINT LThumb
								{
									OFFSET 0 0 0
									CHANNELS 3 Zrotation Yrotation Xrotation
									End Site
									{
										OFFSET 0.46855 -0.00000 0.46855
									}
								}
							}
						}
					}
				}
				JOINT RightShoulder
				{
					OFFSET 0 0 0
					CHANNELS 3 Zrotation Yrotation Xrotation
					JOINT RightArm
					{
						OFFSET -2.06033 1.72839 -0.47437
						CHANNELS 3 Zrotation Yrotation Xrotation
						JOINT RightForeArm
						{
							OFFSET -5.07010 -0.00000 0.00000
							CHANNELS 3 Zrotation Yrotation Xrotation
							JOINT RightHand
							{
								OFFSET -3.14957 -0.00000 -0.00000
								CHANNELS 3 Zrotation Yrotation Xrotation
								JOINT RightFingerBase
								{
									OFFSET 0 0 0
									CHANNELS 3 Zrotation Yrotation Xrotation
									JOINT RightHandIndex1
									{
										OFFSET -0.71819 -0.00000 -0.00000
										CHANNELS 3 Zrotation Yrotation Xrotation
										End Site
										{
											OFFSET -0.57902 -0.00000 -0.00000
										}
									}
								}
								JOINT RThumb
								{
									OFFSET 0 0 0
									CHANNELS 3 Zrotation Yrotation Xrotation
									End Site
									{
										OFFSET -0.58786 -0.00000 0.58786
									}
								}
							}
						}
					}
				}
			}
		}
	}
}
MOTION
Frames: 7
Frame Time: .0083333
46.6440 15.2500 -0.3437 1058.8000 -89.7453 -1060.8700 0.0000 0.0000 0.0000 -24.3554 -12.1241 9.9303 1.2149 6.9920 19.6915 1.9178 9.4432 -30.9812 0.4366 -4.2399 -11.7526 0.0000 0.0000 0.0000 21.5181 11.4741 -11.7413 -3.1211 -10.8885 31.9048 -2.5354 -13.3985 -37.1709 -1.9183 8.6938 -24.8420 1.4500 -1.2126 6.8371 0.9167 -1.6792 4.6662 0.2268 -0.8816 0.9669 6.8287 7.4670 -9.3141 -1.4051 8.2161 37.7970 -0.6684 3.7367 15.1253 -0.0000 0.0000 0.0000 -82.0593 6.1938 39.9289 17.1792 -27.0935 -4.1686 -0.0000 0.0000 -1.0864 18.2865 13.4627 4.3994 -7.1250 0.0000 -0.0000 -8.3456 43.9710 0.2135 -0.0000 0.0000 0.0000 84.9728 -4.6785 25.5140 -16.5586 26.2722 -3.8899 0.0000 -0.0000 -18.9157 -19.0482 -0.1681 0.0581 7.1250 -0.0000 -0.0000 5.9292 -30.1303 2.1622
46.7490 15.2528 -0.3193 1140.8200 -89.7153 -1143.2100 0.0000 0.0000 0.0000 -24.4340 -11.4245 9.4206 1.2097 6.9775 19.6488 1.8096 8.9737 -29.9859 0.4283 -4.2001 -11.6402 0.0000 0.0000 0.0000 21.0075 11.1319 -12.1685 -3.1867 -10.9913 32.2505 -2.5318 -13.2151 -37.0239 -1.6066 7.9936 -22.6946 0.7587 -1.1100 7.1080 0.6956 -1.5833 4.8187 0.3851 -0.8485 0.9864 6.9543 7.5066 -9.1083 -1.3231 8.2075 37.8485 -0.6651 3.7578 15.1075 -0.0000 0.0000 0.0000 -81.7453 5.9516 39.7844 17.0358 -26.9050 -4.1035 -0.0000 0.0000 -0.7735 18.0010 14.1254 4.5340 -7.1250 0.0000 -0.0000 -8.7536 44.6217 0.0824 -0.0000 0.0000 0.0000 85.4091 -4.4939 24.7229 -16.1141 25.6750 -3.6952 0.0000 -0.0000 -18.5934 -19.0250 0.1580 -0.0545 7.1250 -0.0000 -0.0000 5.9269 -29.7870 2.2101
46.8494 15.2582 -0.2909 1215.4700 -89.4433 -1218.0000 0.0000 0.0000 0.0000 -24.3633 -10.5703 8.7781 1.1994 6.9487 19.5633 1.7119 8.7550 -29.2045 0.4139 -4.1298 -11.4422 0.0000 0.0000 0.0000 20.6742 10.7475 -12.8494 -3.2515 -11.0915 32.5891 -2.4911 -12.8039 -36.5267 -2.3073 9.4788 -27.3048 0.3323 -0.9193 7.2671 0.5348 -1.3537 4.8417 0.4477 -0.7418 0.9271 6.8936 7.6010 -9.0138 -1.2032 8.3040 38.0265 -0.5932 3.7974 15.1681 -0.0000 0.0000 0.0000 -81.5320 5.9939 39.4000 17.0253 -26.8912 -4.0988 -0.0000 0.0000 -0.6428 17.7985 13.9706 4.4319 -7.1250 0.0000 -0.0000 -8.9016 44.4388 0.1243 -0.0000 0.0000 0.0000 85.7639 -4.4119 24.1961 -15.6881 25.0959 -3.5126 0.0000 -0.0000 -18.2337 -19.0206 0.1088 -0.0375 7.1250 -0.0000 -0.0000 5.9334 -29.8387 2.2052
46.9375 15.2767 -0.2564 1239.9000 -89.0748 -1242.5700 0.0000 0.0000 0.0000 -24.3369 -10.2037 8.6021 1.1621 6.8437 19.2532 1.5868 9.2553 -28.7134 0.4391 -4.2521 -11.7870 0.0000 0.0000 0.0000 20.5530 10.0806 -13.5559 -3.3215 -11.1982 32.9512 -2.4265 -12.3045 -35.8408 -2.6654 10.1326 -29.4071 0.1967 -0.7970 7.3720 0.4772 -1.1994 4.8389 0.4566 -0.6673 0.8668 6.7925 7.7868 -9.0832 -1.0906 8.5320 38.4442 -0.4879 3.8774 15.3920 -0.0000 0.0000 0.0000 -81.4845 6.2774 38.8916 17.1540 -27.0604 -4.1572 -0.0000 0.0000 -0.8146 17.7009 16.3978 5.1484 -7.1250 0.0000 -0.0000 -9.6047 46.9155 -0.4581 -0.0000 0.0000 0.0000 85.9474 -4.4310 23.8638 -15.3704 24.6595 -3.3790 0.0000 -0.0000 -17.9523 -18.6257 -0.0975 0.0329 7.1250 -0.0000 -0.0000 6.2567 -30.0525 2.2945
47.0220 15.2926 -0.2210 1248.2000 -88.5872 -1250.9300 0.0000 0.0000 0.0000 -24.7151 -10.7830 9.0218 1.0988 6.6609 18.7144 1.4990 10.2541 -28.8450 0.3555 -3.8308 -10.6012 0.0000 0.0000 0.0000 20.3760 9.5299 -14.3211 -3.4130 -11.3354 33.4195 -2.4268 -11.5082 -35.3008 -2.4709 9.7847 -28.2824 0.0586 -0.6646 7.4359 0.4265 -1.0298 4.7941 0.4725 -0.5842 0.7854 6.7531 7.9489 -9.0872 -1.1959 8.8065 38.7164 -0.4795 3.9616 15.5496 -0.0000 -0.0000 0.0000 -81.5174 6.7238 38.5073 17.3689 -27.3416 -4.2554 -0.0000 0.0000 -1.5272 18.4236 15.1579 4.9780 -7.1250 0.0000 -0.0000 -8.6135 45.7368 -0.1578 -0.0000 -0.0000 0.0000 86.0259 -4.5622 23.7466 -15.1983 24.4216 -3.3075 0.0000 -0.0000 -17.7116 -18.0202 -0.2284 0.0743 7.1250 -0.0000 -0.0000 6.7417 -30.1840 2.4532
47.1028 15.3167 -0.1922 1245.0700 -88.1046 -1247.8800 0.0000 0.0000 0.0000 -25.2633 -11.2673 9.5610 1.0121 6.4009 17.9521 1.4288 10.9660 -28.9157 0.2436 -3.1758 -8.7686 0.0000 0.0000 0.0000 19.9824 9.1062 -14.9629 -3.5227 -11.4966 33.9735 -2.5477 -10.4117 -35.2383 -1.8773 8.6056 -24.5692 -0.3278 -0.5363 7.5206 0.3243 -0.8810 4.7479 0.5759 -0.5159 0.6936 6.6756 8.1481 -9.0465 -1.2490 9.1333 38.9492 -0.4357 4.0706 15.6748 0.0000 -0.0000 0.0000 -81.5778 7.2454 38.3119 17.5925 -27.6322 -4.3586 -0.0000 0.0000 -2.6317 17.1224 24.9519 7.4047 -7.1250 0.0000 -0.0000 -13.3804 55.4368 -3.4731 0.0000 -0.0000 0.0000 86.0595 -4.6995 23.7807 -15.0641 24.2354 -3.2522 0.0000 -0.0000 -17.3064 -17.4435 -0.0624 0.0196 7.1250 -0.0000 -0.0000 7.1821 -30.0056 2.6465
47.1784 15.3352 -0.1716 1239.9100 -87.7559 -1242.7900 0.0000 0.0000 0.0000 -25.8030 -11.7321 10.0152 0.9308 6.1458 17.2082 1.3474 11.5026 -28.7899 0.1321 -2.3430 -6.4546 0.0000 0.0000 0.0000 19.5346 8.6203 -15.6604 -3.6568 -11.6892 34.6412 -2.6485 -9.6120 -35.2877 -1.4921 7.7166 -21.8566 -0.8464 -0.4257 7.4788 0.2197 -0.7649 4.7541 0.7509 -0.4675 0.7269 6.7788 8.3403 -8.7379 -1.5300 9.5289 38.7569 -0.5203 4.2239 15.5541 -0.0000 -0.0000 0.0000 -81.6785 7.5479 37.8237 17.6369 -27.6897 -4.3792 -0.0000 0.0000 -2.7096 17.2444 25.7883 7.6906 -7.1250 0.0000 -0.0000 -13.6832 56.2879 -3.8383 -0.0000 -0.0000 0.0000 86.0753 -4.7639 23.8881 -14.9508 24.0775 -3.2058 0.0000 -0.0000 -16.7865 -17.2341 0.2276 -0.0706 7.1250 -0.0000 -0.0000 7.3241 -29.7025 2.7530
